<svg xmlns="http://www.w3.org/2000/svg">
    <symbol id="logo" viewBox="0 0 885 272">
        <g>
            <path d="M723.294 178.59c-12.77 5.203-22.85 23.18-38.176 33.4-.95.632-1.9.95-2.534.95-1.267 0-2.85-1.268-2.85-6.97 0-19.642 6.335-29.146 11.72-43.085 18.692-48.47 50.688-89.97 79.2-135.274 2.218-3.484 3.485-7.285 3.485-11.404 0-3.484-1.268-6.336-2.852-9.82C770.02 3.534 764.318 1 757.982 1c-3.484 0-6.652.317-10.77.317-14.89 0-18.058 21.86-21.543 27.56-23.76 40.235-51.006 89.973-64.945 125.137-3.057 7.883-6.36 15.767-8.868 23.857-13.775 3.99-24.095 23.358-40.236 34.12-.95.632-1.9.95-2.534.95-1.267 0-2.85-1.268-2.85-6.97 0-19.642 6.335-29.146 11.72-43.085 18.692-48.47 50.69-89.97 79.2-135.274 2.218-3.484 3.486-7.285 3.486-11.404 0-3.484-1.268-6.336-2.852-9.82C696.523 3.534 690.82 1 684.485 1c-3.485 0-6.653.317-10.77.317-14.89 0-18.06 21.86-21.544 27.56-23.76 40.235-51.004 89.973-64.943 125.137-1.108 2.858-2.248 5.716-3.372 8.584-.346.185-.7.386-1.063.604-16.157 9.504-29.78 26.294-49.42 37.7-3.802 2.216-15.524 10.453-25.028 10.453-2.218 0-4.118-.633-6.02-1.584-2.85-1.266-5.702-7.285-5.702-9.186 0-1.584.317-1.9 3.485-3.802 27.88-16.79 50.688-40.867 70.33-64.944 7.286-8.87 16.79-26.294 16.79-38.966 0-8.237-2.85-17.74-12.672-21.226-6.97-2.534-14.89-3.8-21.225-3.8-16.79 0-29.146 7.602-36.116 14.888-7.095 7.575-13.958 15.353-20.335 23.405-6.663-5.753-16.06-8.2-24.968-8.2-10.454 0-30.096 12.99-40.234 20.593-1.584 1.267-2.534 1.9-3.168 1.9-.316 0-.633-.316-.633-.95 0-.317.633-3.168.633-8.237 0-4.435-.95-10.137-5.068-17.107-.95-1.585-6.653-5.07-13.623-5.07-8.554 0-16.474 4.12-16.474 8.554 0 3.168 2.85 4.435 2.85 7.286 0 1.584-1.266 8.87-3.167 15.84-5.387 20.276-12.04 40.234-19.01 60.192-3.8 11.088-16.473 20.91-16.473 32.948 0 3.8 2.535 8.87 6.02 12.672 5.702 6.336 9.187 8.553 14.255 8.553 2.218 0 4.752-.633 6.97-2.534 4.752-4.118 7.286-8.236 8.554-13.938 8.236-37.383 31.996-62.727 58.29-79.517 8.87-5.703 20.91-11.722 22.494-11.722 1.624 0 4.164.75 6.724 1.48-7.35 11.99-13.306 24.632-17.18 38.12-1.266 4.435-1.9 8.554-1.9 12.99 0 7.285 1.584 14.89 4.12 22.175 3.484 10.138 9.186 19.008 17.106 23.126 14.573 7.604 25.027 11.722 34.53 11.722 5.387 0 9.505-.95 13.94-3.485 20.823-11.78 33.59-20.718 42.807-28.656.253 8.05 1.84 12.508 7.565 18.52 5.702 6.02 14.572 11.404 26.294 13.94 1.9.316 3.802.632 5.702.632 13.41 0 26.318-10.9 36.27-21.706 1.152 2.358 2.827 4.61 5.23 7.134 5.704 6.02 14.574 11.404 26.296 13.94 1.9.316 3.8.632 5.702.632 15.71 0 30.727-14.957 41.114-27.2 3.462 7.162 13.137 14.24 24.78 19.914 3.168 1.584 6.97 2.534 10.455 2.534 13.622 0 23.443-11.088 31.046-19.324 19.643-21.543 30.414-48.154 38.65-81.735.634-2.534 1.585-3.485 2.852-3.485 3.168 0 7.286 0 11.722-.633 8.553-1.267 15.206-4.12 23.126-5.386 4.752-.95 4.118-2.533 8.554-4.117 3.168-1.267 5.702-2.535 5.702-5.703 0-5.385-9.82-11.088-24.71-11.088-11.722 0-18.692.95-23.444.95-7.286 0-9.187-2.217-13.94-14.572 0 0 4.753 12.355 0 0-.95-2.534-1.9-3.802-4.75-6.336-6.654-5.702-14.89-7.603-21.543-7.603-15.84 0-29.464 16.158-38.968 29.78-2.217 3.168-5.385 5.702-7.603 9.187-13.05 19.575-25.545 41.65-27.086 65.443zM318.264 70.696c7.92 0 12.355-.634 13.306-.634.95 0 1.584.317 1.584 1.268 0 .633-.317 1.584-2.535 6.336-19.326 41.5-32.63 83.635-44.353 130.204-.317 1.268-1.267 6.02-1.267 10.772 0 4.435 1.267 9.187 5.702 11.72 8.554 5.07 15.524 7.288 20.276 7.288 6.97 0 10.454-4.436 10.454-11.722 0-6.336.317-12.99 1.267-18.058 8.87-46.57 22.175-83 42.767-121.017 9.82-18.058 11.088-19.008 11.088-20.592 0-.633-.317-1.583-.95-2.534 12.672-2.85 27.878-4.752 41.817-4.752 1.584 0 7.92 2.218 8.87 3.168 2.218 2.218 4.436 4.436 8.238 4.436 3.168 0 8.553-2.218 10.454-3.485 4.435-3.168 6.653-6.653 6.653-12.355 0-5.386-19.96-18.692-33.898-18.692-17.108 0-32.63 2.218-47.204 5.07-6.336 1.266-29.146 4.75-45.62 4.75-15.84 0-14.89-2.216-21.542-2.216-3.8 0-5.702 1.9-7.286 3.484-1.584 1.584-2.534 7.92-2.534 13.623 0 2.85 0 5.07 1.584 6.97 4.752 5.702 13.94 6.97 23.126 6.97 0 0-9.187 0 0 0zm234.75 25.66c0 2.852-.952 4.753-4.753 10.772-3.8 6.02-2.217 6.02-6.97 12.355-9.186 12.355-20.59 24.71-35.48 38.333-4.12 3.802-4.752 3.802-5.386 3.802-.317 0-.95-.317-.95-.95 0-.95.316-2.218 3.484-8.87 9.82-20.593 21.86-34.216 35.165-47.52 7.287-7.288 11.722-9.822 13.306-9.822.95 0 1.583.317 1.583 1.9 0 0 0-1.583 0 0zm243.618 8.238c.317 0 .634.316.95.95.317.95.95 1.9 2.535 3.168 1.267.95 1.267 5.386 1.267 8.87 0 30.73-17.424 56.074-34.53 81.735-3.803 5.702-6.02 6.653-7.92 6.653-1.585 0-4.12-4.12-5.07-6.653-1.267-3.485-1.584-7.603-1.584-9.187 0-24.71 23.443-61.46 38.966-81.735 2.535-3.485 4.436-3.8 5.386-3.8 0 0-.95 0 0 0z"></path>
            <path d="M75 36c-13.807 0-25 11.2-25 25v150c0 13.806 11.2 25 25 25h150c13.806 0 25-11.2 25-25V61c0-13.807-11.2-25-25-25H75zm99.997 26C168.37 62 163 67.372 163 74.006v63.988c0 6.63 5.373 12.006 11.997 12.006h37.006c6.626 0 11.997-5.372 11.997-12.006V74.006C224 67.376 218.627 62 212.003 62h-37.006zm-87 0C81.37 62 76 67.367 76 74.005v113.99C76 194.625 81.373 200 87.997 200h37.006c6.626 0 11.997-5.367 11.997-12.005V74.005C137 67.375 131.627 62 125.003 62H87.997z"></path>
        </g>
    </symbol>
    <symbol id="home" viewBox="0 0 512 512">
        <g>
            <path d="M506.555,208.064L263.859,30.367c-4.68-3.426-11.038-3.426-15.716,0L5.445,208.064c-5.928,4.341-7.216,12.665-2.875,18.593s12.666,7.214,18.593,2.875L256,57.588l234.837,171.943c2.368,1.735,5.12,2.57,7.848,2.57c4.096,0,8.138-1.885,10.744-5.445C513.771,220.729,512.483,212.405,506.555,208.064z"/>
            <path d="M442.246,232.543c-7.346,0-13.303,5.956-13.303,13.303v211.749H322.521V342.009c0-36.68-29.842-66.52-66.52-66.52s-66.52,29.842-66.52,66.52v115.587H83.058V245.847c0-7.347-5.957-13.303-13.303-13.303s-13.303,5.956-13.303,13.303v225.053c0,7.347,5.957,13.303,13.303,13.303h133.029c6.996,0,12.721-5.405,13.251-12.267c0.032-0.311,0.052-0.651,0.052-1.036v-128.89c0-22.009,17.905-39.914,39.914-39.914s39.914,17.906,39.914,39.914v128.89c0,0.383,0.02,0.717,0.052,1.024c0.524,6.867,6.251,12.279,13.251,12.279h133.029c7.347,0,13.303-5.956,13.303-13.303V245.847C455.549,238.499,449.593,232.543,442.246,232.543z"/>
        </g>
    </symbol>
    <symbol id="search" viewBox="0 0 451 451">
        <path d="M447.05,428l-109.6-109.6c29.4-33.8,47.2-77.9,47.2-126.1C384.65,86.2,298.35,0,192.35,0C86.25,0,0.05,86.3,0.05,192.3s86.3,192.3,192.3,192.3c48.2,0,92.3-17.8,126.1-47.2L428.05,447c2.6,2.6,6.1,4,9.5,4s6.9-1.3,9.5-4C452.25,441.8,452.25,433.2,447.05,428z M26.95,192.3c0-91.2,74.2-165.3,165.3-165.3c91.2,0,165.3,74.2,165.3,165.3s-74.1,165.4-165.3,165.4C101.15,357.7,26.95,283.5,26.95,192.3z"/>
    </symbol>
    <symbol id="logout" viewBox="0 0 471.2 471.2">
        <g>
            <path d="M227.619,444.2h-122.9c-33.4,0-60.5-27.2-60.5-60.5V87.5c0-33.4,27.2-60.5,60.5-60.5h124.9c7.5,0,13.5-6,13.5-13.5s-6-13.5-13.5-13.5h-124.9c-48.3,0-87.5,39.3-87.5,87.5v296.2c0,48.3,39.3,87.5,87.5,87.5h122.9c7.5,0,13.5-6,13.5-13.5S235.019,444.2,227.619,444.2z"/>
            <path d="M450.019,226.1l-85.8-85.8c-5.3-5.3-13.8-5.3-19.1,0c-5.3,5.3-5.3,13.8,0,19.1l62.8,62.8h-273.9c-7.5,0-13.5,6-13.5,13.5s6,13.5,13.5,13.5h273.9l-62.8,62.8c-5.3,5.3-5.3,13.8,0,19.1c2.6,2.6,6.1,4,9.5,4s6.9-1.3,9.5-4l85.8-85.8C455.319,239.9,455.319,231.3,450.019,226.1z"/>
	    </g>
    </symbol>
    <symbol id="vk" viewBox="0 0 548.358 548.358">
        <path d="M545.451,400.298c-0.664-1.431-1.283-2.618-1.858-3.569c-9.514-17.135-27.695-38.167-54.532-63.102l-0.567-0.571l-0.284-0.28l-0.287-0.287h-0.288c-12.18-11.611-19.893-19.418-23.123-23.415c-5.91-7.614-7.234-15.321-4.004-23.13   c2.282-5.9,10.854-18.36,25.696-37.397c7.807-10.089,13.99-18.175,18.556-24.267c32.931-43.78,47.208-71.756,42.828-83.939l-1.701-2.847c-1.143-1.714-4.093-3.282-8.846-4.712c-4.764-1.427-10.853-1.663-18.278-0.712l-82.224,0.568c-1.332-0.472-3.234-0.428-5.712,0.144c-2.475,0.572-3.713,0.859-3.713,0.859l-1.431,0.715l-1.136,0.859c-0.952,0.568-1.999,1.567-3.142,2.995c-1.137,1.423-2.088,3.093-2.848,4.996c-8.952,23.031-19.13,44.444-30.553,64.238c-7.043,11.803-13.511,22.032-19.418,30.693c-5.899,8.658-10.848,15.037-14.842,19.126c-4,4.093-7.61,7.372-10.852,9.849c-3.237,2.478-5.708,3.525-7.419,3.142c-1.715-0.383-3.33-0.763-4.859-1.143c-2.663-1.714-4.805-4.045-6.42-6.995c-1.622-2.95-2.714-6.663-3.285-11.136c-0.568-4.476-0.904-8.326-1-11.563c-0.089-3.233-0.048-7.806,0.145-13.706c0.198-5.903,0.287-9.897,0.287-11.991c0-7.234,0.141-15.085,0.424-23.555c0.288-8.47,0.521-15.181,0.716-20.125c0.194-4.949,0.284-10.185,0.284-15.705s-0.336-9.849-1-12.991c-0.656-3.138-1.663-6.184-2.99-9.137c-1.335-2.95-3.289-5.232-5.853-6.852c-2.569-1.618-5.763-2.902-9.564-3.856c-10.089-2.283-22.936-3.518-38.547-3.71c-35.401-0.38-58.148,1.906-68.236,6.855c-3.997,2.091-7.614,4.948-10.848,8.562c-3.427,4.189-3.905,6.475-1.431,6.851c11.422,1.711,19.508,5.804,24.267,12.275l1.715,3.429c1.334,2.474,2.666,6.854,3.999,13.134c1.331,6.28,2.19,13.227,2.568,20.837c0.95,13.897,0.95,25.793,0,35.689c-0.953,9.9-1.853,17.607-2.712,23.127c-0.859,5.52-2.143,9.993-3.855,13.418c-1.715,3.426-2.856,5.52-3.428,6.28c-0.571,0.76-1.047,1.239-1.425,1.427c-2.474,0.948-5.047,1.431-7.71,1.431c-2.667,0-5.901-1.334-9.707-4c-3.805-2.666-7.754-6.328-11.847-10.992c-4.093-4.665-8.709-11.184-13.85-19.558c-5.137-8.374-10.467-18.271-15.987-29.691l-4.567-8.282c-2.855-5.328-6.755-13.086-11.704-23.267c-4.952-10.185-9.329-20.037-13.134-29.554c-1.521-3.997-3.806-7.04-6.851-9.134l-1.429-0.859c-0.95-0.76-2.475-1.567-4.567-2.427c-2.095-0.859-4.281-1.475-6.567-1.854l-78.229,0.568c-7.994,0-13.418,1.811-16.274,5.428l-1.143,1.711C0.288,140.146,0,141.668,0,143.763c0,2.094,0.571,4.664,1.714,7.707c11.42,26.84,23.839,52.725,37.257,77.659c13.418,24.934,25.078,45.019,34.973,60.237c9.897,15.229,19.985,29.602,30.264,43.112c10.279,13.515,17.083,22.176,20.412,25.981c3.333,3.812,5.951,6.662,7.854,8.565l7.139,6.851c4.568,4.569,11.276,10.041,20.127,16.416c8.853,6.379,18.654,12.659,29.408,18.85c10.756,6.181,23.269,11.225,37.546,15.126c14.275,3.905,28.169,5.472,41.684,4.716h32.834c6.659-0.575,11.704-2.669,15.133-6.283l1.136-1.431c0.764-1.136,1.479-2.901,2.139-5.276c0.668-2.379,1-5,1-7.851c-0.195-8.183,0.428-15.558,1.852-22.124c1.423-6.564,3.045-11.513,4.859-14.846c1.813-3.33,3.859-6.14,6.136-8.418c2.282-2.283,3.908-3.666,4.862-4.142c0.948-0.479,1.705-0.804,2.276-0.999c4.568-1.522,9.944-0.048,16.136,4.429c6.187,4.473,11.99,9.996,17.418,16.56c5.425,6.57,11.943,13.941,19.555,22.124c7.617,8.186,14.277,14.271,19.985,18.274l5.708,3.426c3.812,2.286,8.761,4.38,14.853,6.283c6.081,1.902,11.409,2.378,15.984,1.427l73.087-1.14c7.229,0,12.854-1.197,16.844-3.572c3.998-2.379,6.373-5,7.139-7.851c0.764-2.854,0.805-6.092,0.145-9.712C546.782,404.25,546.115,401.725,545.451,400.298z"/>
    </symbol>
</svg>
